<svg width="429" height="79" viewBox="0 0 429 79" fill="none" xmlns="http://www.w3.org/2000/svg">
<path d="M360.823 77.3593H349.005L383.187 1.04346H394.823L429.005 77.3593H417.187L389.368 13.1169H388.641L360.823 77.3593ZM365.187 47.5484H412.823V55.7464H365.187V47.5484Z" fill="#070708"/>
<path d="M345.923 1.04346V77.3593H334.65V1.04346H345.923Z" fill="#070708"/>
<path d="M279.848 77.3593C258.774 77.3593 241.69 60.2754 241.69 39.2014V6.67982C241.69 3.56694 244.213 1.04346 247.326 1.04346C250.439 1.04346 252.963 3.56695 252.963 6.67982V35.1024C252.963 53.9126 268.211 69.1613 287.022 69.1613H323.401C325.665 69.1613 327.5 70.9965 327.5 73.2603C327.5 75.5241 325.665 77.3593 323.401 77.3593H279.848Z" fill="#070708"/>
<path d="M234.256 39.2013C234.256 47.2502 232.483 54.2061 228.937 60.0689C225.392 65.9317 220.528 70.453 214.346 73.6328C208.165 76.8127 201.104 78.4026 193.165 78.4026C185.225 78.4026 178.165 76.8127 171.983 73.6328C165.801 70.453 160.937 65.9317 157.392 60.0689C153.846 54.2061 152.074 47.2502 152.074 39.2013C152.074 31.1524 153.846 24.1965 157.392 18.3337C160.937 12.4709 165.801 7.94957 171.983 4.76974C178.165 1.58991 185.225 0 193.165 0C201.104 0 208.165 1.58991 214.346 4.76974C220.528 7.94957 225.392 12.4709 228.937 18.3337C232.483 24.1965 234.256 31.1524 234.256 39.2013ZM223.346 39.2013C223.346 32.5932 221.998 27.0161 219.301 22.4699C216.634 17.9238 213.013 14.4831 208.437 12.1479C203.892 9.81275 198.801 8.64515 193.165 8.64515C187.528 8.64515 182.422 9.81275 177.846 12.1479C173.301 14.4831 169.68 17.9238 166.983 22.4699C164.316 27.0161 162.983 32.5932 162.983 39.2013C162.983 45.8094 164.316 51.3865 166.983 55.9326C169.68 60.4788 173.301 63.9195 177.846 66.2547C182.422 68.5898 187.528 69.7574 193.165 69.7574C198.801 69.7574 203.892 68.5898 208.437 66.2547C213.013 63.9195 216.634 60.4788 219.301 55.9326C221.998 51.3865 223.346 45.8094 223.346 39.2013Z" fill="#070708"/>
<path d="M149.014 24.8921H137.741C137.075 22.2339 135.908 19.8988 134.241 17.8865C132.605 15.8743 130.605 14.185 128.241 12.8187C125.908 11.4275 123.317 10.3841 120.469 9.68853C117.62 8.99295 114.651 8.64515 111.56 8.64515C105.923 8.64515 100.817 9.81275 96.2415 12.1479C91.696 14.4831 88.0748 17.9238 85.3778 22.4699C82.7112 27.0161 81.3778 32.5932 81.3778 39.2013C81.3778 45.8094 82.7112 51.3865 85.3778 55.9326C88.0748 60.4788 91.696 63.9195 96.2415 66.2547C100.817 68.5898 105.923 69.7574 111.56 69.7574C114.651 69.7574 117.62 69.4096 120.469 68.7141C123.317 68.0185 125.908 66.9875 128.241 65.6212C130.605 64.23 132.605 62.5283 134.241 60.5161C135.908 58.479 137.075 56.1438 137.741 53.5105H149.014C148.166 57.4108 146.62 60.9011 144.378 63.9816C142.135 67.062 139.348 69.6829 136.014 71.8442C132.681 73.9806 128.938 75.6078 124.787 76.7257C120.666 77.8436 116.257 78.4026 111.56 78.4026C103.62 78.4026 96.5597 76.8127 90.3778 73.6328C84.196 70.453 79.3324 65.9317 75.7869 60.0689C72.2415 54.2061 70.4688 47.2502 70.4688 39.2013C70.4688 31.1524 72.2415 24.1965 75.7869 18.3337C79.3324 12.4709 84.196 7.94957 90.3778 4.76974C96.5597 1.58991 103.62 0 111.56 0C116.257 0 120.666 0.558954 124.787 1.67686C128.938 2.79477 132.681 4.43437 136.014 6.59566C139.348 8.7321 142.135 11.3406 144.378 14.421C146.62 17.4766 148.166 20.967 149.014 24.8921Z" fill="#070708"/>
<path d="M54.9091 20.1223C54.3636 16.3463 52.1515 13.4149 48.2727 11.3281C44.3939 9.24137 39.6364 8.19799 34 8.19799C29.8788 8.19799 26.2727 8.74452 23.1818 9.83759C20.1212 10.9307 17.7273 12.4336 16 14.3465C14.303 16.2593 13.4545 18.4331 13.4545 20.8676C13.4545 22.9047 14.0455 24.6561 15.2273 26.1218C16.4394 27.5626 17.9848 28.7675 19.8636 29.7363C21.7424 30.6803 23.7121 31.4629 25.7727 32.0839C27.8333 32.6802 29.7273 33.1646 31.4545 33.5372L40.9091 35.624C43.3333 36.1457 46.0303 36.8661 49 37.7853C52 38.7044 54.8636 39.959 57.5909 41.5489C60.3485 43.114 62.6212 45.1262 64.4091 47.5856C66.197 50.045 67.0909 53.0633 67.0909 56.6406C67.0909 60.7645 65.7727 64.4908 63.1364 67.8197C60.5303 71.1486 56.7121 73.7943 51.6818 75.7569C46.6818 77.7194 40.6061 78.7007 33.4545 78.7007C26.7879 78.7007 21.0152 77.8188 16.1364 76.055C11.2879 74.2912 7.4697 71.8318 4.68182 68.6768C1.92424 65.5218 0.363636 61.8575 0 57.684H11.6364C11.9394 60.5657 13.1212 62.9506 15.1818 64.8386C17.2727 66.7018 19.9091 68.093 23.0909 69.0122C26.303 69.9065 29.7576 70.3536 33.4545 70.3536C37.7576 70.3536 41.6212 69.7823 45.0455 68.6395C48.4697 67.4719 51.1818 65.8572 53.1818 63.7952C55.1818 61.7085 56.1818 59.2739 56.1818 56.4916C56.1818 53.9577 55.3182 51.8957 53.5909 50.3058C51.8636 48.7159 49.5909 47.4241 46.7727 46.4304C43.9545 45.4367 40.9091 44.5672 37.6364 43.822L26.1818 41.139C18.9091 39.4249 13.1515 36.9779 8.90909 33.7981C4.66667 30.6182 2.54545 26.4571 2.54545 21.3148C2.54545 17.0419 3.95455 13.3155 6.77273 10.1357C9.62121 6.93103 13.4394 4.44679 18.2273 2.68298C23.0455 0.894326 28.4242 0 34.3636 0C40.3636 0 45.697 0.881904 50.3636 2.64571C55.0303 4.38468 58.7273 6.76955 61.4545 9.80032C64.2121 12.8311 65.6667 16.2718 65.8182 20.1223H54.9091Z" fill="#070708"/>
</svg>
