<svg width="429" height="96" viewBox="0 0 429 96" fill="none" xmlns="http://www.w3.org/2000/svg">
<path d="M360.823 94.3636H349.005L383.187 1.27271H394.823L429.005 94.3636H417.187L389.369 16H388.641L360.823 94.3636ZM365.187 58H412.823V68H365.187V58Z" fill="black"/>
<path d="M345.923 1.27271V94.3636H334.65V1.27271H345.923Z" fill="black"/>
<path d="M284.595 94.3636C260.899 94.3636 241.69 75.1544 241.69 51.4586V6.90908C241.69 3.7962 244.214 1.27271 247.326 1.27271C250.439 1.27271 252.963 3.79619 252.963 6.90907V47.095C252.963 67.6779 269.649 84.3636 290.231 84.3636H322.5C325.261 84.3636 327.5 86.6022 327.5 89.3636C327.5 92.125 325.261 94.3636 322.5 94.3636H284.595Z" fill="black"/>
<path d="M234.255 47.8182C234.255 57.6364 232.483 66.1212 228.937 73.2727C225.392 80.4242 220.528 85.9394 214.346 89.8182C208.165 93.697 201.104 95.6364 193.165 95.6364C185.225 95.6364 178.165 93.697 171.983 89.8182C165.801 85.9394 160.937 80.4242 157.392 73.2727C153.846 66.1212 152.074 57.6364 152.074 47.8182C152.074 38 153.846 29.5152 157.392 22.3636C160.937 15.2121 165.801 9.69697 171.983 5.81818C178.165 1.93939 185.225 0 193.165 0C201.104 0 208.165 1.93939 214.346 5.81818C220.528 9.69697 225.392 15.2121 228.937 22.3636C232.483 29.5152 234.255 38 234.255 47.8182ZM223.346 47.8182C223.346 39.7576 221.998 32.9545 219.301 27.4091C216.634 21.8636 213.013 17.6667 208.437 14.8182C203.892 11.9697 198.801 10.5455 193.165 10.5455C187.528 10.5455 182.422 11.9697 177.846 14.8182C173.301 17.6667 169.68 21.8636 166.983 27.4091C164.316 32.9545 162.983 39.7576 162.983 47.8182C162.983 55.8788 164.316 62.6818 166.983 68.2273C169.68 73.7727 173.301 77.9697 177.846 80.8182C182.422 83.6667 187.528 85.0909 193.165 85.0909C198.801 85.0909 203.892 83.6667 208.437 80.8182C213.013 77.9697 216.634 73.7727 219.301 68.2273C221.998 62.6818 223.346 55.8788 223.346 47.8182Z" fill="black"/>
<path d="M149.014 30.3636H137.741C137.075 27.1212 135.908 24.2727 134.241 21.8182C132.605 19.3636 130.605 17.303 128.241 15.6364C125.908 13.9394 123.317 12.6667 120.469 11.8182C117.62 10.9697 114.65 10.5455 111.56 10.5455C105.923 10.5455 100.817 11.9697 96.2413 14.8182C91.6959 17.6667 88.0747 21.8636 85.3777 27.4091C82.711 32.9545 81.3777 39.7576 81.3777 47.8182C81.3777 55.8788 82.711 62.6818 85.3777 68.2273C88.0747 73.7727 91.6959 77.9697 96.2413 80.8182C100.817 83.6667 105.923 85.0909 111.56 85.0909C114.65 85.0909 117.62 84.6667 120.469 83.8182C123.317 82.9697 125.908 81.7121 128.241 80.0455C130.605 78.3485 132.605 76.2727 134.241 73.8182C135.908 71.3333 137.075 68.4848 137.741 65.2727H149.014C148.166 70.0303 146.62 74.2879 144.378 78.0455C142.135 81.803 139.347 85 136.014 87.6364C132.681 90.2424 128.938 92.2273 124.787 93.5909C120.666 94.9545 116.257 95.6364 111.56 95.6364C103.62 95.6364 96.5595 93.697 90.3777 89.8182C84.1959 85.9394 79.3323 80.4242 75.7868 73.2727C72.2413 66.1212 70.4686 57.6364 70.4686 47.8182C70.4686 38 72.2413 29.5152 75.7868 22.3636C79.3323 15.2121 84.1959 9.69697 90.3777 5.81818C96.5595 1.93939 103.62 0 111.56 0C116.257 0 120.666 0.681819 124.787 2.04546C128.938 3.40909 132.681 5.40909 136.014 8.04546C139.347 10.6515 142.135 13.8333 144.378 17.5909C146.62 21.3182 148.166 25.5758 149.014 30.3636Z" fill="black"/>
<path d="M54.9091 24.5455C54.3636 19.9394 52.1515 16.3636 48.2727 13.8182C44.3939 11.2727 39.6364 10 34 10C29.8788 10 26.2727 10.6667 23.1818 12C20.1212 13.3333 17.7273 15.1667 16 17.5C14.303 19.8333 13.4545 22.4848 13.4545 25.4545C13.4545 27.9394 14.0455 30.0758 15.2273 31.8636C16.4394 33.6212 17.9848 35.0909 19.8636 36.2727C21.7424 37.4242 23.7121 38.3788 25.7727 39.1364C27.8333 39.8636 29.7273 40.4546 31.4545 40.9091L40.9091 43.4546C43.3333 44.0909 46.0303 44.9697 49 46.0909C52 47.2121 54.8636 48.7424 57.5909 50.6818C60.3485 52.5909 62.6212 55.0455 64.4091 58.0455C66.197 61.0455 67.0909 64.7273 67.0909 69.0909C67.0909 74.1212 65.7727 78.6667 63.1364 82.7273C60.5303 86.7879 56.7121 90.0152 51.6818 92.4091C46.6818 94.803 40.6061 96 33.4545 96C26.7879 96 21.0152 94.9242 16.1364 92.7727C11.2879 90.6212 7.4697 87.6212 4.68182 83.7727C1.92424 79.9242 0.363636 75.4545 0 70.3636H11.6364C11.9394 73.8788 13.1212 76.7879 15.1818 79.0909C17.2727 81.3636 19.9091 83.0606 23.0909 84.1818C26.303 85.2727 29.7576 85.8182 33.4545 85.8182C37.7576 85.8182 41.6212 85.1212 45.0455 83.7273C48.4697 82.303 51.1818 80.3333 53.1818 77.8182C55.1818 75.2727 56.1818 72.303 56.1818 68.9091C56.1818 65.8182 55.3182 63.303 53.5909 61.3636C51.8636 59.4242 49.5909 57.8485 46.7727 56.6364C43.9545 55.4242 40.9091 54.3636 37.6364 53.4546L26.1818 50.1818C18.9091 48.0909 13.1515 45.1061 8.90909 41.2273C4.66667 37.3485 2.54545 32.2727 2.54545 26C2.54545 20.7879 3.95455 16.2424 6.77273 12.3636C9.62121 8.45455 13.4394 5.42424 18.2273 3.27273C23.0455 1.09091 28.4242 0 34.3636 0C40.3636 0 45.697 1.07576 50.3636 3.22727C55.0303 5.34848 58.7273 8.25757 61.4545 11.9545C64.2121 15.6515 65.6667 19.8485 65.8182 24.5455H54.9091Z" fill="black"/>
</svg>
