<svg width="284" height="284" viewBox="0 0 284 284" fill="none" xmlns="http://www.w3.org/2000/svg">
<rect width="284" height="284" rx="80" fill="#070708"/>
<path d="M168.661 67.6474C167.048 66.6608 165.231 66.0586 163.349 65.8872L153.827 65.0205C152.528 64.9022 151.234 65.2994 150.224 66.1266C149.377 66.8208 148.782 67.7753 148.531 68.8424L142.964 92.532C142.802 93.2213 142.003 93.5371 141.415 93.1443C141.187 92.992 141.03 92.7538 140.98 92.4839L136.99 70.8655C136.739 69.5014 136.079 68.2458 135.1 67.2649C133.723 65.8863 131.825 65.1601 129.88 65.2683L122.184 65.6964C119.951 65.8206 117.777 66.4638 115.835 67.5749L114.857 68.1344C113.82 68.7276 112.675 69.1054 111.489 69.2451C109.756 69.4492 108.122 70.1598 106.79 71.2882L105.348 72.5098C103.173 74.3522 100.524 75.5434 97.7041 75.9468L96.5573 76.1109C92.9386 76.6285 89.543 78.171 86.7706 80.5566L76.912 89.0397C75.1523 90.5539 73.6962 92.3976 72.6282 94.46C71.2851 97.0536 69.3315 99.2903 66.9412 100.966L66.7137 101.125C64.1032 102.955 62.0549 105.478 60.7997 108.411C59.9905 110.301 58.8479 112.03 57.4267 113.515L56.6299 114.348C54.5948 116.474 52.9774 118.965 51.862 121.69L48.2472 130.521C47.4237 132.533 47 134.687 47 136.862V139.812C47 142.204 47.9173 144.504 49.5626 146.238C51.1196 147.879 53.2192 148.898 55.4704 149.104L96.5047 152.859C99.2993 153.115 102.056 153.684 104.724 154.556L109.2 156.02C112.088 156.964 114.851 158.256 117.427 159.869L121.161 162.205C124.45 164.264 127.399 166.821 129.905 169.785L132.248 172.558C133.921 174.538 135.316 176.739 136.393 179.098C138.086 182.806 138.962 186.834 138.962 190.911V199.415L137.192 212.931C136.983 214.521 137.426 216.128 138.418 217.387L139.527 218.793C140.299 219.773 141.573 220.208 142.782 219.905C143.528 219.718 144.181 219.266 144.619 218.633L145.134 217.888C145.885 216.802 146.227 215.483 146.098 214.167L145.027 203.27C144.827 201.229 144.804 199.174 144.958 197.129L145.497 190.017C145.852 185.314 147.163 180.733 149.349 176.555C150.974 173.45 153.059 170.609 155.535 168.13L156.633 167.03C159.334 164.326 162.431 162.052 165.819 160.285L170.257 157.97C172.271 156.92 174.376 156.056 176.546 155.387L179.547 154.462C182.175 153.653 184.885 153.135 187.627 152.919L227.537 149.776C229.251 149.641 230.917 149.142 232.423 148.312L233.044 147.971C234.571 147.13 235.839 145.887 236.713 144.377C237.718 142.637 238.152 140.625 237.953 138.624L237.553 134.628C237.327 132.362 236.751 130.144 235.845 128.054L233.034 121.567C231.81 118.745 230.123 116.147 228.043 113.883L227.159 112.921C225.834 111.479 224.739 109.841 223.911 108.065L223.303 106.762C222.122 104.226 220.223 102.093 217.843 100.627C215.769 99.3486 214.055 97.5604 212.865 95.4323L212.474 94.7344C211.507 93.0037 210.25 91.4515 208.759 90.1453L196.528 79.4298C193.675 76.9296 190.133 75.3517 186.368 74.9028L184.965 74.7356C182.465 74.4377 180.096 73.4588 178.114 71.9057L176.988 71.0239C175.764 70.0647 174.303 69.4561 172.761 69.263C171.551 69.1117 170.388 68.7042 169.348 68.0678L168.661 67.6474Z" fill="#F7F9FB"/>
</svg>
